<svg width="48" height="48" viewBox="0 0 68 50" fill="currentColor" xmlns="http://www.w3.org/2000/svg">
    <path d="M34 0.0669816C30.9355 0.0216482 30.9355 4.64565 34 4.60031H40.8V10.3395L28.0931 20.9203L23.6776 9.13365H24.9333C27.9979 9.17898 27.9979 4.55498 24.9333 4.60031H15.8667C12.8021 4.55498 12.8021 9.17898 15.8667 9.13365H18.8224L22.8616 19.9003C20.6939 18.7975 18.2988 18.2154 15.8667 18.2003C7.13093 18.2003 0 25.3312 0 34.067C0 42.8027 7.13093 49.9336 15.8667 49.9336C24.6024 49.9336 31.7333 42.8027 31.7333 34.067C31.7333 31.0296 30.8267 28.2144 29.3307 25.7982L42.1192 15.1448L44.2181 20.4035C39.4853 23.1598 36.2667 28.2235 36.2667 34.067C36.2667 42.8027 43.3976 49.9336 52.1333 49.9336C60.8691 49.9336 68 42.8027 68 34.067C68 25.3312 60.8691 18.2003 52.1333 18.2003C50.8504 18.2003 49.6219 18.3952 48.4251 18.6854L45.3333 10.956V2.33365C45.3333 1.73249 45.0945 1.15596 44.6694 0.730873C44.2444 0.305791 43.6678 0.0669816 43.0667 0.0669816H34ZM15.8667 22.7336C18.4337 22.74 20.9213 23.6246 22.916 25.2406L14.416 32.3216C12.0995 34.2574 14.9963 37.739 17.3173 35.8123L25.8173 28.7267C26.6696 30.3224 27.2 32.1267 27.2 34.067C27.2 40.3547 22.1544 45.4003 15.8667 45.4003C9.57893 45.4003 4.53333 40.3547 4.53333 34.067C4.53333 27.7792 9.57893 22.7336 15.8667 22.7336ZM52.1333 22.7336C58.4211 22.7336 63.4667 27.7792 63.4667 34.067C63.4667 40.3547 58.4211 45.4003 52.1333 45.4003C45.8456 45.4003 40.8 40.3547 40.8 34.067C40.8 30.0912 42.8264 26.6232 45.9 24.6014L50.0253 34.9102C51.1405 37.7344 55.3747 36.0435 54.2413 33.2238L50.1251 22.9331C50.7733 22.8243 51.4443 22.7336 52.1333 22.7336Z" fill="currentColor" />
</svg>
    