<svg width="307" height="59" viewBox="0 0 307 59" fill="none" xmlns="http://www.w3.org/2000/svg">
<path d="M16.584 46.512C13.4267 46.512 10.6533 45.8507 8.264 44.528C5.87467 43.1627 4.01867 41.264 2.696 38.832C1.37333 36.4 0.712 33.584 0.712 30.384V1.2H9.544V30.128C9.544 32.688 10.184 34.7573 11.464 36.336C12.7867 37.9147 14.4933 38.704 16.584 38.704H23.368C25.5013 38.704 27.2293 37.9147 28.552 36.336C29.8747 34.7573 30.536 32.688 30.536 30.128V1.2H39.368V30.384C39.368 33.584 38.7067 36.4 37.384 38.832C36.0613 41.264 34.184 43.1627 31.752 44.528C29.32 45.8507 26.5253 46.512 23.368 46.512H16.584ZM47.0305 1.2H70.8385C74.7212 1.2 77.8358 2.24533 80.1825 4.336C82.5718 6.42666 83.7665 9.17866 83.7665 12.592V17.072C83.7665 19.2907 83.1265 21.232 81.8465 22.896C80.6092 24.5173 78.7958 25.7547 76.4065 26.608V26.736C77.7718 27.632 78.7958 28.656 79.4785 29.808C80.2038 30.96 80.9078 32.56 81.5905 34.608L85.1745 46H76.0225L72.6305 35.376C72.0758 33.5413 71.3078 32.176 70.3265 31.28C69.3452 30.384 68.1292 29.936 66.6785 29.936H55.8625V46H47.0305V1.2ZM69.1745 22.32C70.9665 22.32 72.3745 21.8507 73.3985 20.912C74.4225 19.9307 74.9345 18.672 74.9345 17.136V12.976C74.9345 11.7387 74.5505 10.7573 73.7825 10.032C73.0145 9.264 71.9905 8.88 70.7105 8.88H55.8625V22.32H69.1745ZM95.6535 11.056C93.9895 11.056 92.6455 10.5867 91.6215 9.648C90.6402 8.66667 90.1495 7.38667 90.1495 5.808C90.1495 4.22933 90.6402 2.97066 91.6215 2.032C92.6455 1.05066 93.9895 0.559998 95.6535 0.559998C97.3175 0.559998 98.6402 1.05066 99.6215 2.032C100.646 2.97066 101.158 4.22933 101.158 5.808C101.158 7.38667 100.646 8.66667 99.6215 9.648C98.6402 10.5867 97.3175 11.056 95.6535 11.056ZM91.3015 14.064H100.006V46H91.3015V14.064ZM119.979 46.512C116.182 46.512 113.11 45.36 110.763 43.056C108.459 40.752 107.307 37.7227 107.307 33.968V26.672C107.307 24.0693 107.862 21.7867 108.971 19.824C110.08 17.8187 111.638 16.2827 113.643 15.216C115.648 14.1067 117.974 13.552 120.619 13.552H124.139C125.376 13.552 126.635 13.8293 127.915 14.384C129.195 14.896 130.262 15.6 131.115 16.496V1.2H139.819V46H131.755V41.776C130.902 43.184 129.75 44.336 128.299 45.232C126.848 46.0853 125.334 46.512 123.755 46.512H119.979ZM124.715 39.024C126.464 39.024 127.915 38.4053 129.067 37.168C130.262 35.888 130.944 34.2027 131.115 32.112V26.544C130.816 24.88 130.155 23.5573 129.131 22.576C128.15 21.552 126.976 21.04 125.611 21.04H121.707C120 21.04 118.614 21.616 117.547 22.768C116.523 23.92 116.011 25.4347 116.011 27.312V33.328C116.011 35.0347 116.48 36.4213 117.419 37.488C118.358 38.512 119.574 39.024 121.067 39.024H124.715ZM159.628 46.512C156.94 46.512 154.551 46.0213 152.46 45.04C150.412 44.016 148.812 42.608 147.66 40.816C146.508 38.9813 145.932 36.8907 145.932 34.544V26.288C145.932 23.7707 146.508 21.552 147.66 19.632C148.812 17.712 150.412 16.2187 152.46 15.152C154.551 14.0853 156.94 13.552 159.628 13.552H164.748C168.844 13.552 172.129 14.704 174.604 17.008C177.079 19.312 178.316 22.384 178.316 26.224V33.008H154.636V34.544C154.636 35.952 155.084 37.0827 155.98 37.936C156.876 38.7893 158.092 39.216 159.628 39.216H164.62C166.113 39.216 167.308 38.896 168.204 38.256C169.143 37.5733 169.612 36.6987 169.612 35.632H178.188C178.188 37.7653 177.612 39.664 176.46 41.328C175.308 42.992 173.687 44.272 171.596 45.168C169.548 46.064 167.18 46.512 164.492 46.512H159.628ZM169.74 26.736V26.224C169.74 24.56 169.292 23.2373 168.396 22.256C167.5 21.232 166.305 20.72 164.812 20.72H159.628C158.092 20.72 156.855 21.2533 155.916 22.32C154.977 23.3867 154.508 24.7947 154.508 26.544V26.736H169.74ZM184.468 1.2H192.34L206.996 27.824L221.332 1.2H229.204V46H220.564V17.648L211.156 34.672C210.516 35.824 209.855 36.656 209.172 37.168C208.532 37.6373 207.785 37.872 206.932 37.872H204.5L193.108 17.648V46H184.468V1.2ZM247.012 46.512C243.684 46.512 240.996 45.68 238.948 44.016C236.9 42.352 235.876 40.1547 235.876 37.424V35.056C235.876 32.368 236.942 30.2133 239.076 28.592C241.209 26.928 244.025 26.096 247.524 26.096H251.428C252.537 26.096 253.732 26.2453 255.012 26.544C256.292 26.8427 257.465 27.248 258.532 27.76V24.432C258.532 23.3653 258.169 22.512 257.444 21.872C256.761 21.1893 255.844 20.848 254.692 20.848H249.188C247.993 20.848 247.033 21.1253 246.308 21.68C245.582 22.2347 245.22 22.9813 245.22 23.92H236.772C236.772 20.8053 237.902 18.3093 240.164 16.432C242.468 14.512 245.476 13.552 249.188 13.552H254.692C258.446 13.552 261.476 14.5547 263.78 16.56C266.084 18.5227 267.236 21.1467 267.236 24.432V46H259.172V42.16C258.148 43.4827 256.889 44.5493 255.396 45.36C253.902 46.128 252.43 46.512 250.98 46.512H247.012ZM251.62 39.856C253.198 39.856 254.606 39.4507 255.844 38.64C257.081 37.8293 257.977 36.7413 258.532 35.376V34.288C257.849 33.776 256.889 33.3707 255.652 33.072C254.457 32.7733 253.177 32.624 251.812 32.624H247.78C246.756 32.624 245.924 32.88 245.284 33.392C244.644 33.904 244.324 34.5867 244.324 35.44V37.104C244.324 37.9147 244.665 38.576 245.348 39.088C246.073 39.6 247.012 39.856 248.164 39.856H251.62ZM274.275 14.064H282.339V17.52C283.235 16.3253 284.365 15.3653 285.731 14.64C287.139 13.9147 288.504 13.552 289.827 13.552H293.859C296.419 13.552 298.68 14.0853 300.643 15.152C302.605 16.176 304.12 17.6267 305.187 19.504C306.253 21.3813 306.787 23.536 306.787 25.968V33.136C306.787 35.7813 306.253 38.128 305.187 40.176C304.12 42.1813 302.627 43.7387 300.707 44.848C298.787 45.9573 296.568 46.512 294.051 46.512H289.891C288.696 46.512 287.459 46.2347 286.179 45.68C284.941 45.1253 283.875 44.3787 282.979 43.44V58.8H274.275V14.064ZM292.899 39.024C294.477 39.024 295.736 38.4267 296.675 37.232C297.613 36.0373 298.083 34.4587 298.083 32.496V26.608C298.083 24.944 297.592 23.6 296.611 22.576C295.672 21.552 294.413 21.04 292.835 21.04H288.931C287.693 21.04 286.52 21.552 285.411 22.576C284.301 23.5573 283.491 24.8373 282.979 26.416V32.752C283.192 34.6293 283.832 36.144 284.899 37.296C286.008 38.448 287.352 39.024 288.931 39.024H292.899Z" fill="#1A659E"/>
</svg>
