<svg width="20" height="20" viewBox="0 0 20 20" fill="none" xmlns="http://www.w3.org/2000/svg">
<path d="M1.88165 4.42733C1.68931 4.53681 1.52949 4.69539 1.41851 4.88687C1.30754 5.07835 1.24939 5.29586 1.25001 5.51718V17.1094C1.24931 17.3253 1.30458 17.5378 1.41044 17.7261C1.5163 17.9143 1.66913 18.0719 1.85404 18.1836C2.03894 18.2952 2.24961 18.357 2.46551 18.3629C2.68141 18.3689 2.89516 18.3188 3.08594 18.2176C3.10274 18.2086 3.11915 18.1992 3.13516 18.1887L6.42188 16.0383C6.46553 16.0098 6.50136 15.9709 6.52613 15.925C6.55089 15.8792 6.5638 15.8279 6.56368 15.7758V1.81444C6.56384 1.75752 6.54845 1.70163 6.51916 1.65281C6.48988 1.60399 6.44782 1.5641 6.39752 1.53745C6.34722 1.51079 6.29059 1.49838 6.23375 1.50155C6.17692 1.50473 6.12202 1.52336 6.07501 1.55546L1.88165 4.42733ZM8.29532 1.53554C8.2482 1.50491 8.1937 1.48755 8.13755 1.4853C8.0814 1.48304 8.02567 1.49597 7.97625 1.52272C7.92683 1.54947 7.88554 1.58905 7.85672 1.6373C7.8279 1.68554 7.81263 1.74067 7.81251 1.79686V15.764C7.81238 15.8162 7.82529 15.8675 7.85006 15.9133C7.87482 15.9592 7.91066 15.9981 7.9543 16.0265L11.7043 18.4648C11.7515 18.4956 11.806 18.513 11.8623 18.5153C11.9185 18.5176 11.9743 18.5047 12.0238 18.4779C12.0733 18.451 12.1147 18.4114 12.1435 18.363C12.1723 18.3146 12.1875 18.2594 12.1875 18.2031V4.24491C12.1877 4.1927 12.1747 4.14129 12.1499 4.09536C12.125 4.04944 12.0891 4.01047 12.0453 3.98202L8.29532 1.53554ZM18.1457 1.81522C17.9615 1.70248 17.751 1.63998 17.5351 1.63395C17.3192 1.62792 17.1055 1.67857 16.9152 1.78085C16.8984 1.78949 16.8821 1.79915 16.8664 1.80975L13.5793 3.95819C13.5357 3.98665 13.4998 4.02558 13.4751 4.07143C13.4503 4.11727 13.4374 4.16858 13.4375 4.22069V18.184C13.4373 18.241 13.4527 18.2969 13.482 18.3458C13.5113 18.3947 13.5534 18.4346 13.6038 18.4613C13.6541 18.488 13.7108 18.5003 13.7677 18.4971C13.8246 18.4939 13.8795 18.4752 13.9266 18.443L18.109 15.5734C18.3037 15.4648 18.4657 15.3062 18.5784 15.1138C18.6912 14.9215 18.7504 14.7026 18.75 14.4797V2.91718C18.7526 2.69703 18.6983 2.47994 18.5925 2.28691C18.4866 2.09387 18.3327 1.9314 18.1457 1.81522V1.81522Z" fill="white"/>
</svg>
