<svg width="48" height="48" viewBox="0 0 24 24" fill="currentColor" xmlns="http://www.w3.org/2000/svg">
    <path d="M6.01609 4.50195C5.6249 4.50156 5.23748 4.57832 4.87599 4.72784C4.5145 4.87736 4.18605 5.0967 3.90944 5.37331C3.63283 5.64992 3.41349 5.97837 3.26397 6.33986C3.11445 6.70134 3.03769 7.08877 3.03809 7.47995C3.03809 9.71295 6.01609 13.01 6.01609 13.01C6.01609 13.01 8.99409 9.71295 8.99409 7.47995C8.99448 7.08877 8.91772 6.70134 8.7682 6.33986C8.61869 5.97837 8.39934 5.64992 8.12273 5.37331C7.84612 5.0967 7.51767 4.87736 7.15619 4.72784C6.7947 4.57832 6.40727 4.50156 6.01609 4.50195ZM6.01609 8.54295C5.80585 8.54295 5.60033 8.48061 5.42552 8.36381C5.25071 8.247 5.11446 8.08099 5.034 7.88675C4.95355 7.69251 4.9325 7.47878 4.97351 7.27257C5.01453 7.06637 5.11577 6.87696 5.26443 6.7283C5.4131 6.57964 5.6025 6.4784 5.80871 6.43738C6.01491 6.39636 6.22864 6.41742 6.42288 6.49787C6.61712 6.57833 6.78314 6.71457 6.89994 6.88938C7.01674 7.06419 7.07909 7.26971 7.07909 7.47995C7.07882 7.7618 6.96674 8.03202 6.76745 8.23132C6.56816 8.43061 6.29793 8.54269 6.01609 8.54295Z" fill="currentColor" />
    <path d="M21.0238 11.296V6.99605C21.0167 6.5445 20.9481 6.09603 20.8198 5.66305C20.4916 4.51837 19.7655 3.52853 18.7721 2.87191C17.7787 2.21529 16.5834 1.93508 15.4017 2.08176C14.22 2.22845 13.1296 2.7924 12.3269 3.67197C11.5242 4.55154 11.0621 5.68889 11.0238 6.87905V7.12705L11.0138 7.99705V17.949H11.0098V17.99C11.0098 18.5205 10.7991 19.0292 10.424 19.4043C10.0489 19.7793 9.5402 19.99 9.00977 19.99C8.47933 19.99 7.97062 19.7793 7.59555 19.4043C7.22048 19.0292 7.00977 18.5205 7.00977 17.99C7.00977 17.978 7.01277 17.966 7.01377 17.953H7.00977V16.01H5.00977V18.01H5.01177C5.01243 19.0704 5.43428 20.087 6.18452 20.8363C6.93476 21.5856 7.95193 22.0062 9.01227 22.0055C10.0726 22.0049 11.0892 21.583 11.8385 20.8328C12.5878 20.0826 13.0084 19.0654 13.0078 18.005H13.0098V17.023H13.0148V8.99705L13.0248 7.12705V6.88005C13.0533 6.09281 13.3902 5.34834 13.9628 4.80733C14.5354 4.26631 15.2977 3.97213 16.0853 3.98827C16.8729 4.00442 17.6226 4.3296 18.1725 4.89363C18.7224 5.45765 19.0285 6.2153 19.0248 7.00305V11.278C18.6418 11.4947 18.3411 11.8317 18.1691 12.2367C17.9972 12.6417 17.9637 13.0921 18.0738 13.5181C18.1839 13.9441 18.4315 14.3219 18.7782 14.5928C19.1248 14.8638 19.5512 15.0128 19.9912 15.0168C20.4312 15.0207 20.8602 14.8794 21.2117 14.6147C21.5631 14.3501 21.8175 13.9768 21.9353 13.5529C22.053 13.1289 22.0276 12.678 21.863 12.27C21.6984 11.8619 21.4037 11.5196 21.0248 11.296H21.0238Z" fill="currentColor" />
</svg>
    